<svg
                xmlns="http://www.w3.org/2000/svg"
                data-name="Layer 1"
                viewBox="0 0 128 128"
              >
                <defs />
                <path d="M62.6 103.3a1 1 0 00-1.4 0L44 120.8a1 1 0 000 1.4 1 1 0 00.7.3 1 1 0 00.7-.3l17.3-17.3a1 1 0 000-1.5zM58.7 116.3a1 1 0 00.7-.3l7.2-7.2a1 1 0 00-1.4-1.5l-7.2 7.3a1 1 0 00.7 1.7zM55.2 117.4l-2.8 2.8a1 1 0 00.7 1.7 1 1 0 00.7-.3l2.8-2.8a1 1 0 000-1.4 1 1 0 00-1.4 0zM5.9 84.1a1 1 0 00.7.3 1 1 0 00.7-.3l17.4-17.3a1 1 0 10-1.5-1.4L6 82.7a1 1 0 000 1.4zM13.4 70l7.3-7.2a1 1 0 10-1.5-1.4L12 68.6a1 1 0 00.7 1.7 1 1 0 00.7-.3zM7.8 75.6l2.8-2.8a1 1 0 000-1.4 1 1 0 00-1.4 0l-2.8 2.8a1 1 0 000 1.4 1 1 0 00.7.3 1 1 0 00.7-.3zM68 33.6L27.1 40a1 1 0 00-.5.3L20 46.8a1 1 0 000 1.5l16.6 16.6-4.7 4.7a1 1 0 000 1.5l11.5 11.4-4.6 4.6a1 1 0 00.7 1.7 1 1 0 00.7-.3l4.6-4.6L57 96a1 1 0 001.4 0l4.7-4.7 16.7 16.6a1 1 0 001.4 0l6-6 .5-.5a1 1 0 00.3-.6L94.4 60l20.3-20.3a22.8 22.8 0 006-10.3.6.6 0 000-.2 22 22 0 00.5-3.4l1.1-11.3a8.1 8.1 0 00-8.8-8.8l-11.3 1a22.7 22.7 0 00-3.4.6h-.1a22.8 22.8 0 00-10.4 6zm-23.9 24L28.4 41.8 65.6 36zm-22-10l4.6-4.6 16 16-4.6 4.5zm58.4 58.2l-16-16 4.5-4.5 16 16zm5.6-6.3L70.5 84 92 62.4zm16.3-90.8l11.3-1.1a6.1 6.1 0 016.7 6.7l-1.1 11.3-.2 1.3-18-18 1.3-.2zm-3.6.7l19.8 19.8a21 21 0 01-5.3 9L57.7 94 46.3 82.5 75 53.7a1 1 0 000-1.4 1 1 0 00-1.5 0L45 81.1 34 70.3l10.7-10.6 45-45a21 21 0 019-5.3zM10.9 120.4a3.3 3.3 0 001.4-.3l19.5-9.1A11.2 11.2 0 1017 96.2l-9.1 19.5a3.3 3.3 0 003 4.7zm-1.2-3.9l9-19.5a9.1 9.1 0 016.8-5.2 10.2 10.2 0 011.7-.1 9.2 9.2 0 019 10.8 9.1 9.1 0 01-5.2 6.7l-19.5 9a1.3 1.3 0 01-1.8-1.7z" />
                <path d="M96.2 42.3a10.5 10.5 0 10-7.4-3 10.4 10.4 0 007.4 3zm-6-16.5a8.5 8.5 0 110 12 8.4 8.4 0 010-12z" />
              </svg>