<svg
                xmlns="http://www.w3.org/2000/svg"
                data-name="Layer 1"
                viewBox="0 0 128 128"
              >
                <defs />
                <path d="M38.6 53.2a14.6 14.6 0 0010.6-24.6 1 1 0 00-.7-.3 1.1 1.1 0 00-.7.3l-8.9 8.9-1.7-1.7a1 1 0 00-1.4 1.4l1.7 1.7-9 8.9a1 1 0 000 1.4 14.5 14.5 0 0010.1 4zm9.9-22.4a12.6 12.6 0 01-17.7 17.7z" />
                <path d="M2.7 102.7a1 1 0 00.3.7L24.5 125a1 1 0 00.7.3 1 1 0 00.7-.3l12.4-12.3a.8.8 0 00.4-.5l12.1-12a1 1 0 00.3-.2.9.9 0 00.2-.3l12.3-12.3a1 1 0 000-1.4l-8.4-8.4 1.5-1.5 11.8 11.9 3.7 6.4.1.1a1 1 0 00.1.2l5.1 5.1a1 1 0 00.7.3 1 1 0 00.7-.3L99.7 79a1 1 0 000-1.4l-5-5.1a1 1 0 00-.2-.1h-.1l-6.5-3.8-11.8-11.9 1.4-1.4 8.4 8.3a1 1 0 00.7.3 1 1 0 00.7-.3L125 26a1 1 0 000-1.4L103.5 3a1 1 0 00-1.4 0L89.7 15.4a.8.8 0 00-.4.5L77.2 28a1 1 0 00-.3.2.9.9 0 00-.2.3L64.4 40.8a1 1 0 000 1.4l8.4 8.4-1.5 1.4-11.4-11.4a1 1 0 00-1.4 0l-18 17.9a1 1 0 000 1.4L52 71.3l-1.4 1.4-8.4-8.3a1 1 0 00-1.4 0L3 102a1 1 0 00-.3.7zM29 79l9.3 9.3L27 99.5l-9.4-9.3zm10.7 10.8l9.3 9.3-11.1 11.1-9.3-9.3zm38.7 7.8L74.6 94 94 74.6l3.7 3.7zm-4.9-5.3l-2.8-5 16.8-16.7 5 2.8zm-4-6.5L67 83.6 78.7 72a1 1 0 000-1.4 1 1 0 00-1.4 0L65.7 82.2 46.3 62.8l16.5-16.5 19.4 19.4-1.7 1.7a1 1 0 101.4 1.4l1.7-1.7 2.2 2.2zm20.8-68l9.3 9.3-11 11.1L79 29zm10.7 10.8l9.4 9.3L99.2 49l-9.4-9.3zm1.9-23.4l20 20-11.1 11.2-9.3-9.3 10-10a1 1 0 000-1.4 1 1 0 00-1.5 0l-10 10-9.3-9.3zM77.7 30.3l9.3 9.3-9.6 9.7a1 1 0 000 1.4 1 1 0 001.4 0l9.6-9.7 9.3 9.4-11 11.1-20.2-20zM74.2 52l2 2-1.5 1.4-2-2zm-15-9.2l2.2 2.2L45 61.4l-2.2-2.2zm-5.8 30l1.9 2-1.5 1.4-2-2zm-12-6.2l20 20-11 11.2-9.4-9.3 9.6-9.7a1 1 0 00-1.4-1.4L39.6 87l-9.3-9.3zm-25 25l9.2 9.4-10 10a1 1 0 000 1.4 1 1 0 001.5 0l10-10 9.3 9.3-11.2 11.2-20-20zM43.6 28.2a1 1 0 00-.3-1.4 11.9 11.9 0 00-16.5 16.5 1 1 0 00.9.5 1 1 0 00.5-.2 1 1 0 00.3-1.4 9.9 9.9 0 0113.7-13.7 1 1 0 001.4-.3z" />
                <path d="M38.6 32.3a1 1 0 10.9-1.8 6.7 6.7 0 00-9 9 1 1 0 00.9.5 1 1 0 00.9-1.4 4.7 4.7 0 016.3-6.3z" />
              </svg>